<svg width="48" height="48" viewBox="0 0 48 48" fill="none" xmlns="http://www.w3.org/2000/svg">
<path d="M26.5 31.5L19 24L26.5 16.5M46.5 24C46.5 21.0453 45.918 18.1194 44.7873 15.3896C43.6566 12.6598 41.9992 10.1794 39.9099 8.0901C37.8206 6.00078 35.3402 4.34344 32.6104 3.21271C29.8806 2.08198 26.9547 1.5 24 1.5C21.0453 1.5 18.1194 2.08198 15.3896 3.21271C12.6598 4.34344 10.1794 6.00078 8.0901 8.0901C6.00078 10.1794 4.34344 12.6598 3.21271 15.3896C2.08198 18.1194 1.5 21.0453 1.5 24C1.5 29.9674 3.87053 35.6903 8.0901 39.9099C12.3097 44.1295 18.0326 46.5 24 46.5C29.9674 46.5 35.6903 44.1295 39.9099 39.9099C44.1295 35.6903 46.5 29.9674 46.5 24Z" stroke="#A2A2A2" stroke-width="2" stroke-linecap="round" stroke-linejoin="round"/>
</svg>
